<?xml version="1.0" standalone="no"?>
<!DOCTYPE svg PUBLIC "-//W3C//DTD SVG 20010904//EN"
 "http://www.w3.org/TR/2001/REC-SVG-20010904/DTD/svg10.dtd">
<svg version="1.0" xmlns="http://www.w3.org/2000/svg"
 width="605.000000pt" height="605.000000pt" viewBox="0 0 605.000000 605.000000"
 preserveAspectRatio="xMidYMid meet">

<g transform="translate(0.000000,605.000000) scale(0.100000,-0.100000)"
fill="#000000" stroke="none">
<path d="M2589 5614 c-8 -10 -50 -49 -94 -87 -123 -108 -329 -353 -422 -502
-50 -80 -129 -244 -156 -325 -102 -300 -35 -562 183 -710 55 -37 140 -118 140
-132 0 -12 -112 -10 -172 3 -66 14 -110 36 -176 89 -41 32 -61 59 -97 130 -57
114 -71 167 -80 312 -7 110 -8 116 -24 98 -9 -10 -36 -35 -60 -55 -110 -90
-333 -376 -479 -614 -183 -297 -308 -652 -337 -956 -11 -103 -7 -380 6 -450
17 -97 78 -338 87 -347 5 -5 11 42 15 109 15 322 197 795 412 1070 89 115 171
193 201 193 12 0 -77 -202 -141 -321 -64 -120 -166 -429 -190 -575 -16 -100
-22 -401 -10 -515 24 -226 150 -553 290 -752 95 -137 240 -282 420 -420 169
-131 252 -185 392 -256 298 -150 642 -219 999 -200 180 9 252 19 400 54 207
49 294 79 486 167 170 78 209 101 278 159 45 38 101 83 126 99 89 62 40 59
-113 -6 -56 -24 -150 -57 -210 -74 -59 -17 -149 -44 -198 -60 -135 -42 -275
-60 -482 -60 -152 0 -206 4 -354 29 -198 34 -270 54 -419 118 -171 74 -217
100 -390 219 -138 94 -187 135 -296 246 -199 204 -308 352 -401 548 -87 182
-132 332 -158 528 -20 144 -19 215 5 357 27 164 62 280 125 410 49 100 174
318 194 338 5 5 -16 -56 -45 -135 -69 -182 -81 -221 -108 -373 -40 -222 -22
-508 44 -715 31 -94 140 -317 206 -417 143 -221 360 -434 556 -549 119 -70
316 -174 368 -194 93 -37 239 -80 375 -111 305 -71 679 -40 977 80 237 95 292
121 422 203 150 94 178 115 337 255 136 120 246 244 351 398 142 208 201 339
254 569 34 148 20 236 -24 155 -58 -108 -208 -316 -219 -305 -3 2 4 33 15 68
34 111 47 233 47 443 -1 179 -4 214 -28 330 -27 128 -86 302 -135 400 -35 71
-185 290 -190 277 -1 -5 6 -41 17 -79 74 -246 45 -635 -64 -885 -43 -97 -159
-294 -222 -378 -96 -126 -309 -334 -379 -370 -16 -8 -48 -29 -70 -46 -62 -46
-238 -130 -324 -154 -97 -27 -249 -37 -332 -21 -86 17 -197 72 -249 124 -24
23 -57 69 -74 102 -26 52 -30 71 -29 140 0 98 22 149 96 231 101 109 208 150
468 179 239 27 298 50 405 160 62 63 80 92 162 256 72 142 95 199 103 249 5
35 6 68 2 72 -4 3 -56 23 -117 43 -233 77 -431 195 -493 293 -16 26 -53 97
-82 157 -29 61 -72 137 -95 170 -108 152 -391 370 -565 434 -84 31 -201 61
-236 61 -17 0 -51 7 -77 16 l-47 16 0 48 c0 67 -35 264 -70 395 -43 162 -80
263 -152 423 -58 127 -67 141 -79 126z m4 -544 c50 -136 73 -261 90 -500 2
-21 -3 -25 -43 -33 -44 -8 -62 -15 -145 -53 -56 -26 -167 -139 -195 -199 -37
-79 -37 -136 -1 -262 37 -131 39 -152 8 -98 -13 22 -51 81 -84 131 -78 118
-98 204 -90 375 7 167 52 288 174 474 64 97 231 281 244 268 4 -4 23 -51 42
-103z m770 -1209 c69 -27 162 -110 227 -202 24 -34 38 -59 30 -54 -7 5 -84 11
-169 15 -203 9 -222 17 -359 153 -101 101 -102 102 -75 109 16 4 87 5 158 4
107 -2 140 -7 188 -25z m192 -384 c254 -28 409 -58 580 -115 l80 -27 24 -60
c12 -33 35 -75 48 -94 l26 -34 -29 -54 c-58 -110 -170 -175 -333 -194 -271
-32 -331 -41 -465 -74 -176 -43 -228 -65 -343 -144 -262 -179 -372 -337 -373
-531 -1 -355 293 -592 875 -707 82 -16 316 -21 452 -11 79 7 3 -49 -113 -82
-119 -34 -249 -45 -397 -31 -72 7 -179 21 -236 32 -180 36 -405 133 -523 227
-40 32 -86 67 -102 77 -15 10 -88 83 -161 162 -130 139 -134 146 -208 295
-120 241 -150 361 -128 517 29 199 62 297 144 419 44 65 26 70 -38 11 -28 -26
-58 -69 -79 -113 -26 -54 -36 -67 -41 -53 -18 44 31 166 111 278 123 171 291
275 514 318 30 6 64 13 75 15 55 12 412 -3 640 -27z"/>
<path d="M2859 5562 c-15 -6 -15 -13 2 -77 10 -38 19 -74 19 -79 0 -4 39 -5
88 -1 123 9 372 -11 541 -44 l143 -28 92 18 c50 11 108 19 128 19 32 0 39 -4
44 -26 4 -14 4 -54 0 -88 l-6 -62 62 -12 c129 -24 425 -191 605 -341 194 -161
408 -396 493 -541 17 -29 49 -80 72 -113 71 -105 208 -408 208 -462 0 -7 8
-29 19 -47 10 -18 26 -67 36 -108 9 -41 23 -93 30 -116 18 -54 62 -251 75
-339 6 -38 12 -134 13 -212 1 -79 3 -143 5 -143 2 0 18 15 36 33 17 17 46 43
64 57 27 21 34 36 43 85 15 81 5 252 -20 346 -11 42 -27 119 -36 173 -18 109
-118 420 -174 541 -60 128 -175 319 -290 479 -116 164 -304 367 -456 494 -250
209 -654 424 -945 503 -202 55 -276 71 -404 84 -140 15 -457 19 -487 7z"/>
<path d="M5183 5462 c-166 -60 -262 -245 -208 -404 23 -66 100 -157 160 -187
43 -23 62 -26 145 -26 81 0 103 4 145 24 66 33 131 100 162 168 22 48 25 65
21 137 -3 55 -11 94 -25 121 -28 53 -112 131 -169 156 -65 29 -167 34 -231 11z"/>
<path d="M633 5446 c-66 -31 -131 -96 -163 -161 -32 -68 -35 -189 -4 -255 34
-74 116 -156 177 -177 172 -59 363 29 428 196 44 112 22 216 -65 309 -68 72
-142 106 -241 110 -68 2 -88 -1 -132 -22z"/>
<path d="M2085 5397 c-329 -106 -694 -340 -951 -610 -480 -505 -741 -1175
-721 -1852 15 -499 154 -910 455 -1344 170 -245 471 -554 677 -695 92 -62 333
-191 342 -182 3 3 -32 42 -78 88 -46 46 -124 125 -174 176 -49 51 -123 121
-163 155 -40 34 -101 96 -136 137 -35 41 -102 117 -150 169 -48 51 -101 114
-118 140 -17 25 -53 74 -79 108 -63 81 -166 256 -214 362 -80 178 -139 385
-176 611 -26 162 -32 503 -10 635 37 233 75 384 131 525 181 455 462 836 805
1092 108 81 324 208 413 243 85 33 106 56 122 127 6 29 22 67 36 86 14 18 24
34 23 36 -2 1 -17 -2 -34 -7z"/>
<path d="M3660 5176 c-213 -80 -610 -301 -640 -355 -16 -30 -3 -60 28 -67 166
-35 440 -170 585 -288 26 -21 50 -37 52 -34 2 2 13 44 24 93 20 92 36 237 46
425 3 58 8 140 11 183 5 61 3 77 -7 76 -8 -1 -52 -16 -99 -33z"/>
<path d="M5195 1207 c-22 -8 -51 -19 -64 -26 -45 -25 -113 -95 -139 -146 -23
-43 -27 -62 -27 -140 0 -78 4 -97 27 -141 71 -135 233 -215 366 -179 95 25
176 95 228 197 56 109 25 270 -67 353 -88 79 -226 114 -324 82z"/>
<path d="M669 1194 c-102 -31 -194 -123 -220 -217 -6 -24 -9 -70 -5 -105 15
-172 149 -302 309 -302 95 0 169 28 230 88 78 76 92 110 92 227 0 86 -3 106
-23 144 -31 58 -100 123 -164 155 -60 30 -143 34 -219 10z"/>
</g>
</svg>
