<?xml version="1.0" encoding="UTF-8" standalone="no"?>
<!-- Created with Inkscape (http://www.inkscape.org/) -->

<svg
   width="90.014015mm"
   height="104.26286mm"
   viewBox="0 0 90.014015 104.26286"
   version="1.1"
   id="svg1"
   xml:space="preserve"
   xmlns:xlink="http://www.w3.org/1999/xlink"
   xmlns="http://www.w3.org/2000/svg"
   xmlns:svg="http://www.w3.org/2000/svg"><defs
     id="defs1"><linearGradient
       id="linearGradient5"><stop
         style="stop-color:#ac0000;stop-opacity:1;"
         offset="0"
         id="stop4" /><stop
         style="stop-color:#f87000;stop-opacity:1;"
         offset="0.6973865"
         id="stop5" /></linearGradient><linearGradient
       id="linearGradient2"><stop
         style="stop-color:#000000;stop-opacity:1;"
         offset="0.1310057"
         id="stop1" /><stop
         style="stop-color:#d27800;stop-opacity:1;"
         offset="1"
         id="stop2" /></linearGradient><linearGradient
       id="linearGradient27"><stop
         style="stop-color:#c20800;stop-opacity:1;"
         offset="0.1310057"
         id="stop27" /><stop
         style="stop-color:#d27800;stop-opacity:1;"
         offset="1"
         id="stop28" /></linearGradient><linearGradient
       xlink:href="#linearGradient2"
       id="linearGradient28"
       x1="646.61475"
       y1="5229.4893"
       x2="5622.147"
       y2="1054.5221"
       gradientUnits="userSpaceOnUse" /><linearGradient
       xlink:href="#linearGradient27"
       id="linearGradient69"
       gradientUnits="userSpaceOnUse"
       x1="646.61475"
       y1="5229.4893"
       x2="5622.147"
       y2="1054.5221" /><linearGradient
       xlink:href="#linearGradient27"
       id="linearGradient70"
       gradientUnits="userSpaceOnUse"
       x1="646.61475"
       y1="5229.4893"
       x2="5622.147"
       y2="1054.5221" /><linearGradient
       xlink:href="#linearGradient27"
       id="linearGradient71"
       gradientUnits="userSpaceOnUse"
       x1="646.61475"
       y1="5229.4893"
       x2="5622.147"
       y2="1054.5221" /><linearGradient
       xlink:href="#linearGradient27"
       id="linearGradient72"
       gradientUnits="userSpaceOnUse"
       x1="646.61475"
       y1="5229.4893"
       x2="5622.147"
       y2="1054.5221" /><linearGradient
       xlink:href="#linearGradient5"
       id="linearGradient4"
       gradientUnits="userSpaceOnUse"
       x1="4029.5276"
       y1="20.261885"
       x2="2239.2356"
       y2="6263.751" /><linearGradient
       xlink:href="#linearGradient5"
       id="linearGradient3"
       gradientUnits="userSpaceOnUse"
       x1="4029.5276"
       y1="20.261885"
       x2="2239.2356"
       y2="6263.751" /><linearGradient
       xlink:href="#linearGradient5"
       id="linearGradient6"
       gradientUnits="userSpaceOnUse"
       x1="4029.5276"
       y1="20.261885"
       x2="2239.2356"
       y2="6263.751" /><linearGradient
       xlink:href="#linearGradient5"
       id="linearGradient7"
       gradientUnits="userSpaceOnUse"
       x1="4029.5276"
       y1="20.261885"
       x2="2239.2356"
       y2="6263.751" /><linearGradient
       xlink:href="#linearGradient5"
       id="linearGradient8"
       gradientUnits="userSpaceOnUse"
       x1="4029.5276"
       y1="20.261885"
       x2="2239.2356"
       y2="6263.751" /></defs><g
     id="layer7"
     transform="matrix(0.90656934,0,0,0.90656934,12.153608,-49.80981)"
     style="display:none"><rect
       style="display:inline;fill:#212830;fill-opacity:1;stroke:#000000;stroke-width:0;stroke-dasharray:none"
       id="rect60"
       width="358.51938"
       height="155.26482"
       x="-51.00296"
       y="39.390682" /></g><g
     id="g27"
     transform="matrix(0.5216804,0,0,0.5216804,46.581021,-12.066225)"
     style="display:none;fill:#decd87"><g
       transform="matrix(0.03567705,0,0,-0.03567705,-118.13938,237.18559)"
       fill="#000000"
       stroke="none"
       id="g26"
       style="display:inline;fill:#e6e6e6;fill-opacity:1"><path
         id="path68"
         style="display:inline;fill:#666666;fill-opacity:1;stroke:#a0a0a0;stroke-width:0;stroke-linecap:square;stroke-dasharray:none;paint-order:stroke markers fill"
         d="m 3039.4794,-5577.6843 c -67.2135,2.1893 -134.3168,6.987 -201.1581,14.3823 l 62.3327,166.2852 c 46.1706,-4.6393 92.4648,-7.954 138.8254,-9.9399 198.4283,0.1415 396.0908,24.6091 588.5644,72.8555 l 175.8363,-128.358 c -247.6299,-76.3064 -505.2806,-115.1444 -764.4007,-115.2251 z m -867.6313,155.8177 c -505.1904,178.9525 -942.6782,509.7435 -1252.53876,947.0395 -309.86048,437.296 -476.93384,959.7027 -478.30921,1495.6499 1.07499,545.5212 173.80255,1076.8815 493.71884,1518.7504 97.43633,134.5792 207.38553,258.3384 327.35043,370.775 l 117.835,-124.0544 c -488.15655,-457.376 -766.60447,-1095.8882 -768.2045,-1765.471 1.34235,-931.0195 534.9911,-1779.2702 1373.6779,-2183.5023 z m 1944.5559,78.5752 -118.0572,133.7444 c 436.0672,187.4684 807.6052,498.6547 1068.6783,895.0633 132.173,200.6889 232.7047,418.8872 300.1407,646.8988 l 164.6469,-45.7291 c -69.6171,-236.1148 -172.7153,-462.3539 -307.304,-671.4709 -269.7855,-419.1789 -654.4393,-751.9082 -1108.1047,-958.5065 z"
         transform="matrix(0.99999994,0,0,-0.99999994,-8.0671867e-7,4.6274905e-5)" /><g
         id="g25"
         style="fill:url(#linearGradient28);fill-opacity:1"><path
           style="display:inline;fill:url(#linearGradient69);fill-opacity:1;stroke:#000000;stroke-width:0;stroke-dasharray:none"
           d="m 146.65413,66.063352 c 0.57907,0.115813 4.97996,-1.042316 4.97996,-1.042316 l 0.46325,4.979957 2.77951,-5.964364 6.71716,-6.427623 -7.64366,3.937641 z"
           id="path22"
           transform="matrix(28.029215,0,0,-28.029215,-431.07509,7107.1423)" /><path
           d="M 3670.052,5189.8215 C 3521.1338,4987.9406 3193.2415,4887.565 3020,4821 c -34.8803,-18.2276 -3,-60 28,-67 166,-35 440,-170 585,-288 26,-21 50,-37 52,-34 2,2 13,44 24,93 20,92 36,237 46,425 3,58 8,140 11,183 5,61 9.6636,65.6718 -7,76 -14.6636,8.3291 -60.8152,17.7928 -88.948,-19.1785 z"
           id="path23"
           style="fill:url(#linearGradient70);fill-opacity:1" /><path
           style="display:inline;fill:url(#linearGradient71);fill-opacity:1;stroke:#000000;stroke-width:0;stroke-dasharray:none"
           d="m 103.19364,54.424821 3.09693,-7.145899 8.91549,-7.773098 -3.39789,7.948718 0.50461,7.846455 -3.60877,-6.134636 z"
           id="path24"
           transform="matrix(28.029215,0,0,-28.029215,-431.07509,7107.1423)" /><path
           d="m 2589,5614 c -8,-10 -50,-49 -94,-87 -123,-108 -329,-353 -422,-502 -50,-80 -129,-244 -156,-325 -102,-300 -35,-562 183,-710 55,-37 140,-118 140,-132 0,-12 -112,-10 -172,3 -66,14 -110,36 -176,89 -41,32 -61,59 -97,130 -57,114 -71,167 -80,312 -7,110 -8,116 -24,98 -9,-10 -36,-35 -60,-55 -110,-90 -333,-376 -479,-614 -183,-297 -308,-652 -337,-956 -11,-103 -7,-380 6,-450 17,-97 78,-338 87,-347 5,-5 11,42 15,109 15,322 197,795 412,1070 89,115 171,193 201,193 12,0 -77,-202 -141,-321 -64,-120 -166,-429 -190,-575 -16,-100 -22,-401 -10,-515 24,-226 150,-553 290,-752 95,-137 240,-282 420,-420 169,-131 252,-185 392,-256 298,-150 642,-219 999,-200 180,9 252,19 400,54 207,49 294,79 486,167 170,78 209,101 278,159 45,38 101,83 126,99 89,62 40,59 -113,-6 -56,-24 -150,-57 -210,-74 -59,-17 -149,-44 -198,-60 -135,-42 -275,-60 -482,-60 -152,0 -206,4 -354,29 -198,34 -270,54 -419,118 -171,74 -217,100 -390,219 -138,94 -187,135 -296,246 -199,204 -308,352 -401,548 -87,182 -132,332 -158,528 -20,144 -19,215 5,357 27,164 62,280 125,410 49,100 174,318 194,338 5,5 -16,-56 -45,-135 -69,-182 -81,-221 -108,-373 -40,-222 -22,-508 44,-715 31,-94 140,-317 206,-417 143,-221 360,-434 556,-549 119,-70 316,-174 368,-194 93,-37 239,-80 375,-111 305,-71 679,-40 977,80 237,95 292,121 422,203 150,94 178,115 337,255 136,120 246,244 351,398 142,208 201,339 254,569 34,148 20,236 -24,155 -58,-108 -208,-316 -219,-305 -3,2 4,33 15,68 34,111 47,233 47,443 -1,179 -4,214 -28,330 -27,128 -86,302 -135,400 -35,71 -185,290 -190,277 -1,-5 6,-41 17,-79 74,-246 45,-635 -64,-885 -43,-97 -159,-294 -222,-378 -96,-126 -309,-334 -379,-370 -16,-8 -48,-29 -70,-46 -62,-46 -238,-130 -324,-154 -97,-27 -249,-37 -332,-21 -86,17 -197,72 -249,124 -24,23 -57,69 -74,102 -26,52 -49.4769,124.5614 -48.4769,193.5614 0,98 13.8847,181.4615 87.8847,263.4615 42.5693,44.0771 98.3799,101.511 253.9369,129.0418 159.2726,22.3674 181.307,-2.934 181.307,-2.934 83.154,107.3509 218.596,264.6577 300.596,428.6577 72,142 95,199 103,249 5,35 -3.1815,66.8523 -7.1815,70.8523 -4,3 -62.2014,41.6756 -109.811,76.6906 -134.9927,115.9516 -134.7329,126.9004 -173.7334,188.9012 C 3943.5213,3804.2333 3925.2278,3865 3910,3925 c -22.1139,106.9074 -46.0308,198.6768 -69.0308,231.6768 -108,152 -312.3253,307.4979 -486.3253,371.4979 -89.6543,35.3977 -232.1377,67.845 -270.3259,75.79 -29.1882,6.0726 -65.9702,10.5093 -116.9648,14.4294 L 2890,4622 v 48 c 0,67 -35,264 -70,395 -43,162 -80,263 -152,423 -58,127 -67,141 -79,126 z m 4,-544 c 50,-136 73,-261 90,-500 2,-21 -3,-25 -43,-33 -44,-8 -62,-15 -145,-53 -56,-26 -167,-139 -195,-199 -37,-79 -37,-136 -1,-262 37,-131 39,-152 8,-98 -13,22 -51,81 -84,131 -78,118 -98,204 -90,375 7,167 52,288 174,474 64,97 231,281 244,268 4,-4 23,-51 42,-103 z m 857.6459,-1202.5077 c 69,-27 139.277,-110 204.277,-202 24,-34 38,-59 30,-54 -7,5 -84,11 -169,15 -203,9 -222,17 -359,153 -101,101 -102,102 -75,109 16,4 148.6768,8.2461 219.6768,7.2461 107,-2 101.0462,-10.2461 149.0462,-28.2461 z m 62.1542,-371.0154 c 154.9925,-19.8847 240.1283,-29.2558 304.5849,-41.3341 l 101.5238,-21.9221 27.7695,-75.7063 c 12,-33 35,-75 48,-94 l 26,-34 -29,-54 c -29,-55 -153.0942,-239.8709 -153.0942,-239.8709 0,0 -39.7755,-1.0946 -138.839,-13.7218 -84.7465,-11.4944 -129.864,-18.7154 -239.7143,-49.8526 -163.0154,-52.7384 -242.6076,-73.1153 -357.6076,-152.1153 C 2840.4232,2540.9538 2771,2344 2770,2150 c -1,-355 293,-592 875,-707 82,-16 316,-21 452,-11 79,7 3,-49 -113,-82 -119,-34 -249,-45 -397,-31 -72,7 -179,21 -236,32 -180,36 -405,133 -523,227 -40,32 -86,67 -102,77 -15,10 -88,83 -161,162 -130,139 -134,146 -208,295 -120,241 -150,361 -128,517 29,199 62,297 144,419 44,65 26,70 -38,11 -28,-26 -58,-69 -79,-113 -26,-54 -36,-67 -41,-53 -18,44 31,166 111,278 123,171 291,275 514,318 30,6 64,13 75,15 55,12 369.8001,16.4769 597.8001,-7.5231 z"
           id="path25"
           style="display:inline;fill:url(#linearGradient72);fill-opacity:1"
           transform="translate(4.3986233e-8,2.434305e-5)" /></g></g></g><g
     id="g12"
     transform="matrix(0.52168039,0,0,0.52168039,46.581022,-12.066224)"
     style="display:inline;fill:#decd87"><g
       transform="matrix(0.03567705,0,0,-0.03567705,-118.13938,237.18559)"
       fill="#000000"
       stroke="none"
       id="g11"
       style="display:inline;fill:#e6e6e6;fill-opacity:1"><path
         id="path6"
         style="display:none;fill:#666666;fill-opacity:1;stroke:#a0a0a0;stroke-width:0;stroke-linecap:square;stroke-dasharray:none;paint-order:stroke markers fill"
         d="m 3039.4794,-5577.6843 c -67.2135,2.1893 -134.3168,6.987 -201.1581,14.3823 l 62.3327,166.2852 c 46.1706,-4.6393 92.4648,-7.954 138.8254,-9.9399 198.4283,0.1415 396.0908,24.6091 588.5644,72.8555 l 175.8363,-128.358 c -247.6299,-76.3064 -505.2806,-115.1444 -764.4007,-115.2251 z m -867.6313,155.8177 c -505.1904,178.9525 -942.6782,509.7435 -1252.53876,947.0395 -309.86048,437.296 -476.93384,959.7027 -478.30921,1495.6499 1.07499,545.5212 173.80255,1076.8815 493.71884,1518.7504 97.43633,134.5792 207.38553,258.3384 327.35043,370.775 l 117.835,-124.0544 c -488.15655,-457.376 -766.60447,-1095.8882 -768.2045,-1765.471 1.34235,-931.0195 534.9911,-1779.2702 1373.6779,-2183.5023 z m 1944.5559,78.5752 -118.0572,133.7444 c 436.0672,187.4684 807.6052,498.6547 1068.6783,895.0633 132.173,200.6889 232.7047,418.8872 300.1407,646.8988 l 164.6469,-45.7291 c -69.6171,-236.1148 -172.7153,-462.3539 -307.304,-671.4709 -269.7855,-419.1789 -654.4393,-751.9082 -1108.1047,-958.5065 z"
         transform="matrix(0.99999994,0,0,-0.99999994,-8.0671867e-7,4.6274905e-5)" /><g
         id="g10"
         style="fill:url(#linearGradient4);fill-opacity:1"><path
           style="display:inline;fill:url(#linearGradient3);fill-opacity:1;stroke:#000000;stroke-width:0;stroke-dasharray:none"
           d="m 146.65413,66.063352 c 0.57907,0.115813 4.97996,-1.042316 4.97996,-1.042316 l 0.46325,4.979957 2.77951,-5.964364 6.71716,-6.427623 -7.64366,3.937641 z"
           id="path7"
           transform="matrix(28.029215,0,0,-28.029215,-431.07509,7107.1423)" /><path
           d="M 3670.052,5189.8215 C 3521.1338,4987.9406 3193.2415,4887.565 3020,4821 c -34.8803,-18.2276 -3,-60 28,-67 166,-35 440,-170 585,-288 26,-21 50,-37 52,-34 2,2 13,44 24,93 20,92 36,237 46,425 3,58 8,140 11,183 5,61 9.6636,65.6718 -7,76 -14.6636,8.3291 -60.8152,17.7928 -88.948,-19.1785 z"
           id="path8"
           style="fill:url(#linearGradient6);fill-opacity:1" /><path
           style="display:inline;fill:url(#linearGradient7);fill-opacity:1;stroke:#000000;stroke-width:0;stroke-dasharray:none"
           d="m 103.19364,54.424821 3.09693,-7.145899 8.91549,-7.773098 -3.39789,7.948718 0.50461,7.846455 -3.60877,-6.134636 z"
           id="path9"
           transform="matrix(28.029215,0,0,-28.029215,-431.07509,7107.1423)" /><path
           d="m 2589,5614 c -8,-10 -50,-49 -94,-87 -123,-108 -329,-353 -422,-502 -50,-80 -129,-244 -156,-325 -102,-300 -35,-562 183,-710 55,-37 140,-118 140,-132 0,-12 -112,-10 -172,3 -66,14 -110,36 -176,89 -41,32 -61,59 -97,130 -57,114 -71,167 -80,312 -7,110 -8,116 -24,98 -9,-10 -36,-35 -60,-55 -110,-90 -333,-376 -479,-614 -183,-297 -308,-652 -337,-956 -11,-103 -7,-380 6,-450 17,-97 78,-338 87,-347 5,-5 11,42 15,109 15,322 197,795 412,1070 89,115 171,193 201,193 12,0 -77,-202 -141,-321 -64,-120 -166,-429 -190,-575 -16,-100 -22,-401 -10,-515 24,-226 150,-553 290,-752 95,-137 240,-282 420,-420 169,-131 252,-185 392,-256 298,-150 642,-219 999,-200 180,9 252,19 400,54 207,49 294,79 486,167 170,78 209,101 278,159 45,38 101,83 126,99 89,62 40,59 -113,-6 -56,-24 -150,-57 -210,-74 -59,-17 -149,-44 -198,-60 -135,-42 -275,-60 -482,-60 -152,0 -206,4 -354,29 -198,34 -270,54 -419,118 -171,74 -217,100 -390,219 -138,94 -187,135 -296,246 -199,204 -308,352 -401,548 -87,182 -132,332 -158,528 -20,144 -19,215 5,357 27,164 62,280 125,410 49,100 174,318 194,338 5,5 -16,-56 -45,-135 -69,-182 -81,-221 -108,-373 -40,-222 -22,-508 44,-715 31,-94 140,-317 206,-417 143,-221 360,-434 556,-549 119,-70 316,-174 368,-194 93,-37 239,-80 375,-111 305,-71 679,-40 977,80 237,95 292,121 422,203 150,94 178,115 337,255 136,120 246,244 351,398 142,208 201,339 254,569 34,148 20,236 -24,155 -58,-108 -208,-316 -219,-305 -3,2 4,33 15,68 34,111 47,233 47,443 -1,179 -4,214 -28,330 -27,128 -86,302 -135,400 -35,71 -185,290 -190,277 -1,-5 6,-41 17,-79 74,-246 45,-635 -64,-885 -43,-97 -159,-294 -222,-378 -96,-126 -309,-334 -379,-370 -16,-8 -48,-29 -70,-46 -62,-46 -238,-130 -324,-154 -97,-27 -249,-37 -332,-21 -86,17 -197,72 -249,124 -24,23 -57,69 -74,102 -26,52 -49.4769,124.5614 -48.4769,193.5614 0,98 13.8847,181.4615 87.8847,263.4615 42.5693,44.0771 98.3799,101.511 253.9369,129.0418 159.2726,22.3674 181.307,-2.934 181.307,-2.934 83.154,107.3509 218.596,264.6577 300.596,428.6577 72,142 95,199 103,249 5,35 -3.1815,66.8523 -7.1815,70.8523 -4,3 -62.2014,41.6756 -109.811,76.6906 -134.9927,115.9516 -134.7329,126.9004 -173.7334,188.9012 C 3943.5213,3804.2333 3925.2278,3865 3910,3925 c -22.1139,106.9074 -46.0308,198.6768 -69.0308,231.6768 -108,152 -312.3253,307.4979 -486.3253,371.4979 -89.6543,35.3977 -232.1377,67.845 -270.3259,75.79 -29.1882,6.0726 -65.9702,10.5093 -116.9648,14.4294 L 2890,4622 v 48 c 0,67 -35,264 -70,395 -43,162 -80,263 -152,423 -58,127 -67,141 -79,126 z m 4,-544 c 50,-136 73,-261 90,-500 2,-21 -3,-25 -43,-33 -44,-8 -62,-15 -145,-53 -56,-26 -167,-139 -195,-199 -37,-79 -37,-136 -1,-262 37,-131 39,-152 8,-98 -13,22 -51,81 -84,131 -78,118 -98,204 -90,375 7,167 52,288 174,474 64,97 231,281 244,268 4,-4 23,-51 42,-103 z m 857.6459,-1202.5077 c 69,-27 139.277,-110 204.277,-202 24,-34 38,-59 30,-54 -7,5 -84,11 -169,15 -203,9 -222,17 -359,153 -101,101 -102,102 -75,109 16,4 148.6768,8.2461 219.6768,7.2461 107,-2 101.0462,-10.2461 149.0462,-28.2461 z m 62.1542,-371.0154 c 154.9925,-19.8847 240.1283,-29.2558 304.5849,-41.3341 l 101.5238,-21.9221 27.7695,-75.7063 c 12,-33 35,-75 48,-94 l 26,-34 -29,-54 c -29,-55 -153.0942,-239.8709 -153.0942,-239.8709 0,0 -39.7755,-1.0946 -138.839,-13.7218 -84.7465,-11.4944 -129.864,-18.7154 -239.7143,-49.8526 -163.0154,-52.7384 -242.6076,-73.1153 -357.6076,-152.1153 C 2840.4232,2540.9538 2771,2344 2770,2150 c -1,-355 293,-592 875,-707 82,-16 316,-21 452,-11 79,7 3,-49 -113,-82 -119,-34 -249,-45 -397,-31 -72,7 -179,21 -236,32 -180,36 -405,133 -523,227 -40,32 -86,67 -102,77 -15,10 -88,83 -161,162 -130,139 -134,146 -208,295 -120,241 -150,361 -128,517 29,199 62,297 144,419 44,65 26,70 -38,11 -28,-26 -58,-69 -79,-113 -26,-54 -36,-67 -41,-53 -18,44 31,166 111,278 123,171 291,275 514,318 30,6 64,13 75,15 55,12 369.8001,16.4769 597.8001,-7.5231 z"
           id="path10"
           style="display:inline;fill:url(#linearGradient8);fill-opacity:1"
           transform="translate(4.3986233e-8,2.434305e-5)" /></g></g></g></svg>
